<?xml version="1.0" encoding="utf-8"?>
<svg width="276.56604px" height="280px" viewBox="0 0 276.56604 280" version="1.1" xmlns:xlink="http://www.w3.org/1999/xlink" xmlns="http://www.w3.org/2000/svg">
  <g id="Beehive-Coloured-2">
    <g id="Beehive-Coloured">
      <g id="Beehive-Coloured">
        <g id="Fill" transform="translate(22.237856 22.23809)">
          <path d="M-1684.76 -7.81448C-1684.76 -15.3656 -1680.5 -21.8423 -1674.4 -24.9844L-1492.95 -24.9844C-1486.84 -21.8423 -1482.59 -15.3656 -1482.59 -7.81448C-1482.59 -2.93913 -1484.36 1.48003 -1487.26 4.86533L-1680.08 4.86533C-1682.99 1.48003 -1684.76 -2.93913 -1684.76 -7.81448L-1684.76 -7.81448Z" id="Shape" fill="#F7D448" fill-rule="evenodd" stroke="none" />
          <path d="M-1520.11 -73.8085C-1515.91 -71.3456 -1511.47 -67.7575 -1507.97 -63.0342C-1504.81 -58.7772 -1502.38 -53.5573 -1501.58 -47.2224L-1665.77 -47.2224C-1664.96 -53.5573 -1662.53 -58.7772 -1659.38 -63.0342C-1655.88 -67.7575 -1651.43 -71.3456 -1647.23 -73.8085L-1520.11 -73.8085L-1520.11 -73.8085Z" id="Shape" fill="#F7D448" fill-rule="evenodd" stroke="none" />
          <path d="M-1632.95 -96.0461C-1623.75 -108.523 -1605.93 -118 -1583.67 -118C-1561.42 -118 -1543.6 -108.523 -1534.39 -96.0461L-1632.95 -96.0461L-1632.95 -96.0461Z" id="Shape" fill="#F7D448" fill-rule="evenodd" stroke="none" />
          <path d="M-1692.24 41.4655C-1692.24 34.8671 -1688.21 29.3228 -1682.67 27.103L-1484.68 27.103C-1479.13 29.3228 -1475.11 34.8671 -1475.11 41.4655C-1475.11 45.8341 -1476.87 49.7465 -1479.7 52.544L-1543.84 52.544C-1551.83 38.1714 -1566.42 28.0559 -1583.67 28.0559C-1600.92 28.0559 -1615.51 38.1714 -1623.5 52.544L-1687.65 52.544C-1690.47 49.7465 -1692.24 45.8341 -1692.24 41.4655L-1692.24 41.4655Z" id="Shape" fill="#F7D448" fill-rule="evenodd" stroke="none" />
          <path d="M-1677.18 117.524C-1689.49 117.524 -1699.72 107.368 -1699.72 94.5361C-1699.72 86.1033 -1695.29 78.7853 -1688.73 74.7816L-1630.05 74.7816C-1630.15 76.0891 -1630.19 77.4169 -1630.19 78.7548L-1630.19 117.524L-1677.18 117.524L-1677.18 117.524Z" id="Shape" fill="#F7D448" fill-rule="evenodd" stroke="none" />
          <path d="M-1583.67 46.3C-1572.77 46.3 -1562.71 53.5471 -1558.02 65.1019L-1557.23 67.0377L-1556.91 68.2642C-1555.93 71.5381 -1555.39 75.0653 -1555.39 78.7547L-1555.39 117.524L-1611.95 117.524L-1611.95 78.7547C-1611.95 75.0653 -1611.46 71.2136 -1610.48 67.9398L-1609.32 65.1019C-1604.63 53.5471 -1594.57 46.3 -1583.67 46.3L-1583.67 46.3Z" id="Shape" fill="#F7D448" fill-rule="evenodd" stroke="none" />
          <path d="M-1467.63 94.5361C-1467.63 107.368 -1477.86 117.524 -1490.17 117.524L-1537.15 117.524L-1537.15 78.7548C-1537.15 77.4169 -1537.2 76.0891 -1537.29 74.7816L-1478.61 74.7816C-1472.06 78.7853 -1467.63 86.1033 -1467.63 94.5361L-1467.63 94.5361Z" id="Shape" fill="#F7D448" fill-rule="evenodd" stroke="none" />
        </g>
        <g id="Outline">
          <path d="M-1467.93 162C-1443.06 162 -1423.15 141.607 -1423.15 116.774C-1423.15 104.064 -1428.34 92.56 -1436.72 84.3298C-1432.87 78.4004 -1430.63 71.3054 -1430.63 63.7036C-1430.63 52.311 -1435.65 42.0739 -1443.61 35.1511C-1440.11 29.0495 -1438.11 21.9646 -1438.11 14.4236C-1438.11 -0.111046 -1445.53 -12.9429 -1456.81 -20.3521C-1456.8 -33.934 -1461.35 -45.2557 -1467.87 -54.0434C-1473.1 -61.0979 -1479.47 -66.3786 -1485.52 -70.0883C-1494.63 -99.0259 -1526.59 -118 -1561.43 -118C-1596.27 -118 -1628.23 -99.0259 -1637.35 -70.0883C-1643.4 -66.3786 -1649.77 -61.0979 -1655 -54.0434C-1661.52 -45.2557 -1666.06 -33.934 -1666.06 -20.3521C-1677.34 -12.9429 -1684.76 -0.111046 -1684.76 14.4236C-1684.76 21.9646 -1682.76 29.0495 -1679.26 35.1511C-1687.22 42.0739 -1692.24 52.311 -1692.24 63.7036C-1692.24 71.3054 -1690 78.4004 -1686.14 84.3298C-1694.52 92.56 -1699.72 104.064 -1699.72 116.774C-1699.72 141.607 -1679.81 162 -1654.94 162L-1467.93 162L-1467.93 162ZM-1467.93 139.762C-1455.62 139.762 -1445.39 129.606 -1445.39 116.774C-1445.39 108.341 -1449.82 101.023 -1456.38 97.0197L-1515.05 97.0197C-1514.96 98.3272 -1514.91 99.655 -1514.91 100.993L-1514.91 139.762L-1467.93 139.762L-1467.93 139.762ZM-1561.43 -95.7621C-1583.69 -95.7621 -1601.51 -86.2852 -1610.72 -73.8081L-1512.15 -73.8081C-1521.36 -86.2852 -1539.18 -95.7621 -1561.43 -95.7621L-1561.43 -95.7621ZM-1485.73 -40.7961C-1489.23 -45.5194 -1493.67 -49.1075 -1497.88 -51.5704L-1624.99 -51.5704C-1629.19 -49.1075 -1633.64 -45.5194 -1637.14 -40.7961C-1640.3 -36.5391 -1642.72 -31.3192 -1643.53 -24.9843L-1479.34 -24.9843C-1480.14 -31.3192 -1482.57 -36.5391 -1485.73 -40.7961L-1485.73 -40.7961ZM-1652.16 -2.74641C-1658.27 0.395645 -1662.52 6.8724 -1662.52 14.4235C-1662.52 19.2988 -1660.75 23.718 -1657.84 27.1033L-1465.03 27.1033C-1462.12 23.718 -1460.35 19.2988 -1460.35 14.4235C-1460.35 6.8724 -1464.6 0.395645 -1470.71 -2.74641L-1652.16 -2.74641L-1652.16 -2.74641ZM-1660.43 49.3411C-1665.97 51.5609 -1670 57.1052 -1670 63.7036C-1670 68.0721 -1668.23 71.9845 -1665.41 74.782L-1601.27 74.782C-1593.28 60.4094 -1578.69 50.294 -1561.43 50.294C-1544.18 50.294 -1529.59 60.4094 -1521.6 74.782L-1457.46 74.782C-1454.63 71.9845 -1452.87 68.0721 -1452.87 63.7036C-1452.87 57.1052 -1456.89 51.5609 -1462.44 49.3411L-1660.43 49.3411L-1660.43 49.3411ZM-1677.48 116.774C-1677.48 129.606 -1667.25 139.762 -1654.94 139.762L-1607.96 139.762L-1607.96 100.993C-1607.96 99.655 -1607.91 98.3272 -1607.82 97.0197L-1666.49 97.0197C-1673.05 101.023 -1677.48 108.341 -1677.48 116.774L-1677.48 116.774Z" id="Outline" fill="#292929" fill-rule="evenodd" stroke="none" />
        </g>
      </g>
    </g>
  </g>
</svg>