<?xml version="1.0" encoding="utf-8"?>
<svg width="276.55896px" height="280px" viewBox="0 0 276.55896 280" version="1.1" xmlns:xlink="http://www.w3.org/1999/xlink" xmlns="http://www.w3.org/2000/svg">
  <g id="Beehive-Outline-2">
    <g id="Beehive-Outline">
      <path d="M-1467.94 162C-1443.07 162 -1423.16 141.605 -1423.16 116.766C-1423.16 104.063 -1428.35 92.5537 -1436.73 84.3257C-1432.88 78.3944 -1430.64 71.3006 -1430.64 63.6969C-1430.64 52.3107 -1435.66 42.0678 -1443.62 35.1493C-1440.12 29.0457 -1438.12 21.959 -1438.12 14.4192C-1438.12 -0.115105 -1445.54 -12.9466 -1456.82 -20.3506C-1456.81 -33.9362 -1461.36 -45.2535 -1467.88 -54.042C-1473.11 -61.0943 -1479.48 -66.3749 -1485.52 -70.0845C-1494.64 -99.0193 -1526.6 -118 -1561.44 -118C-1596.28 -118 -1628.24 -99.0192 -1637.36 -70.0845C-1643.4 -66.3749 -1649.77 -61.0943 -1655 -54.042C-1661.52 -45.2545 -1666.07 -33.9362 -1666.06 -20.3506C-1677.34 -12.9466 -1684.76 -0.115105 -1684.76 14.4192C-1684.76 21.959 -1682.76 29.0457 -1679.26 35.1493C-1687.22 42.0678 -1692.24 52.3107 -1692.24 63.6969C-1692.24 71.3006 -1690 78.3944 -1686.15 84.3257C-1694.53 92.5537 -1699.72 104.063 -1699.72 116.766C-1699.72 141.605 -1679.81 162 -1654.94 162L-1467.94 162L-1467.94 162ZM-1467.94 139.763C-1455.63 139.763 -1445.4 129.606 -1445.4 116.766C-1445.4 108.339 -1449.83 101.019 -1456.39 97.0143L-1515.06 97.0143C-1514.97 98.3279 -1514.92 99.6546 -1514.92 100.993L-1514.92 139.763L-1467.94 139.763L-1467.94 139.763ZM-1561.44 -95.7626C-1583.7 -95.7626 -1601.51 -86.2839 -1610.72 -73.8071L-1512.16 -73.8071C-1521.37 -86.2839 -1539.19 -95.7626 -1561.44 -95.7626L-1561.44 -95.7626ZM-1485.74 -40.7959C-1489.24 -45.5129 -1493.68 -49.106 -1497.88 -51.5699L-1625 -51.5699C-1629.2 -49.106 -1633.65 -45.5129 -1637.14 -40.7959C-1640.3 -36.539 -1642.73 -31.3212 -1643.54 -24.9865L-1479.35 -24.9865C-1480.15 -31.3212 -1482.58 -36.539 -1485.74 -40.7959L-1485.74 -40.7959ZM-1652.16 -2.74936C-1658.27 0.393654 -1662.52 6.86821 -1662.52 14.4191C-1662.52 19.2963 -1660.75 23.7215 -1657.84 27.0976L-1465.04 27.0976C-1462.13 23.7215 -1460.36 19.2963 -1460.36 14.4191C-1460.36 6.86821 -1464.61 0.393654 -1470.72 -2.74936L-1652.16 -2.74936L-1652.16 -2.74936ZM-1660.43 49.335C-1665.98 51.5607 -1670 57.1059 -1670 63.697C-1670 68.0664 -1668.24 71.9817 -1665.41 74.7771L-1601.27 74.7771C-1593.28 60.4029 -1578.69 50.2958 -1561.44 50.2958C-1544.19 50.2958 -1529.6 60.4029 -1521.61 74.7771L-1457.47 74.7771C-1454.64 71.9817 -1452.88 68.0664 -1452.88 63.697C-1452.88 57.1059 -1456.9 51.5607 -1462.45 49.335L-1660.43 49.335L-1660.43 49.335ZM-1677.48 116.766C-1677.48 129.606 -1667.25 139.763 -1654.94 139.763L-1607.96 139.763L-1607.96 100.993C-1607.96 99.6546 -1607.92 98.3279 -1607.82 97.0143L-1666.5 97.0143C-1673.05 101.019 -1677.48 108.339 -1677.48 116.766L-1677.48 116.766Z" id="Beehive-Outline" fill="#292929" fill-rule="evenodd" stroke="none" />
    </g>
  </g>
</svg>