<?xml version="1.0" encoding="utf-8"?>
<svg width="445.57996px" height="157.41742px" viewBox="0 0 445.57996 157.41742" version="1.1" xmlns:xlink="http://www.w3.org/1999/xlink" xmlns="http://www.w3.org/2000/svg">
  <defs>
    <path d="M-753.636 -491.883L-651.885 -491.883L-651.885 -390.131L-753.636 -390.131L-753.636 -491.883Z" id="path_1" />
    <clipPath id="mask_1">
      <use xlink:href="#path_1" />
    </clipPath>
  </defs>
  <g id="Text" transform="matrix(0.9961947 -0.08715574 0.08715574 0.9961947 0 26.321045)">
    <g id="Or-">
      <path d="M135.87 31.1162Q137.479 31.7666 139.395 31.7666Q141.75 31.7666 143.789 30.9756Q145.828 30.1846 147.331 28.8135Q148.834 27.4424 149.695 25.5703Q150.557 23.6982 150.557 21.5361Q150.557 19.6025 149.871 18.0557Q149.186 16.5088 147.911 15.4277Q146.637 14.3467 144.817 13.7666Q142.998 13.1865 140.73 13.1865Q138.885 13.1865 137.127 13.5293Q135.369 13.8721 133.98 14.4258Q132.592 14.9795 131.748 15.6914Q130.904 16.4033 130.904 17.1416Q130.904 17.3877 130.992 17.5811Q131.08 17.7744 131.186 17.9502Q131.291 18.126 131.379 18.2842Q131.467 18.4424 131.467 18.6182Q131.467 18.7588 131.326 19.0928Q131.01 19.9365 130.825 20.9121Q130.641 21.8877 130.641 22.9424Q130.641 24.8936 131.291 26.5107Q131.941 28.1279 133.102 29.2969Q134.262 30.4658 135.87 31.1162ZM161.156 16.7637Q161.648 16.4209 162.299 16.4209Q162.773 16.4209 163.151 16.6055Q163.529 16.79 163.872 17.001Q164.215 17.2119 164.514 17.3965Q164.813 17.5811 165.129 17.5811Q165.41 17.5811 165.683 17.3086Q165.955 17.0361 166.166 16.6406Q166.377 16.2451 166.509 15.8145Q166.641 15.3838 166.641 15.0674Q166.641 14.6279 166.289 14.2764Q165.938 13.9248 165.375 13.6787Q164.813 13.4326 164.109 13.3096Q163.406 13.1865 162.721 13.1865Q161.525 13.1865 160.532 13.5557Q159.539 13.9248 158.774 14.707Q158.01 15.4893 157.5 16.6934Q156.99 17.8975 156.779 19.5674Q156.727 20.165 156.533 20.165Q156.445 20.165 156.393 20.0244Q156.34 19.8838 156.252 19.5322Q155.813 17.5107 155.303 16.5879Q154.793 15.665 154.125 15.665Q153.721 15.665 153.29 15.832Q152.859 15.999 152.499 16.2627Q152.139 16.5264 151.901 16.834Q151.664 17.1416 151.664 17.4053Q151.664 17.6162 151.761 17.8447Q151.857 18.0732 151.998 18.3369Q152.807 19.8486 153.431 21.4307Q154.055 23.0127 154.503 24.6211Q154.951 26.2295 155.25 27.8467Q155.549 29.4639 155.707 31.0107Q155.725 31.3271 155.892 31.5117Q156.059 31.6963 156.278 31.8018Q156.498 31.9072 156.744 31.9424Q156.99 31.9775 157.184 31.9775Q158.221 31.9775 158.783 31.5469Q159.346 31.1162 159.346 30.3604Q159.346 29.2002 159.231 27.8379Q159.117 26.4756 159.117 25.0693Q159.117 23.9971 159.17 22.9424Q159.223 21.8877 159.363 20.9209Q159.504 19.9541 159.732 19.1367Q159.961 18.3193 160.313 17.7129Q160.664 17.1064 161.156 16.7637ZM146.549 19.7607Q147.023 20.8506 147.023 22.2217Q147.023 23.6104 146.514 24.7793Q146.004 25.9482 145.099 26.792Q144.193 27.6357 142.928 28.1016Q141.662 28.5674 140.15 28.5674Q138.832 28.5674 137.733 28.1016Q136.635 27.6357 135.844 26.8008Q135.053 25.9658 134.613 24.7969Q134.174 23.6279 134.174 22.2217Q134.174 19.3213 135.642 17.8535Q137.109 16.3857 140.01 16.3857Q141.662 16.3857 142.972 16.7813Q144.281 17.1768 145.178 17.9238Q146.074 18.6709 146.549 19.7607Z" />
    </g>
    <g id="Continue-as-a-guest!">
      <path d="M294.161 55.002Q294.205 55.1953 294.275 55.4414Q295.242 59.0273 295.805 62.543Q296.367 66.0586 296.508 69.2754Q296.543 69.6797 296.728 69.8994Q296.912 70.1191 297.369 70.1719L298.846 70.3828Q299.162 70.3828 299.347 70.2246Q299.531 70.0664 299.637 69.8115Q299.742 69.5566 299.777 69.2314Q299.813 68.9063 299.813 68.5547Q299.813 66.709 299.698 64.9424Q299.584 63.1758 299.382 61.4619Q299.18 59.748 298.916 58.0781Q298.652 56.4082 298.336 54.7559Q298.072 53.4551 295.348 53.4551Q294.732 53.4551 294.425 53.7891Q294.117 54.123 294.117 54.6152Q294.117 54.8086 294.161 55.002ZM58.3945 55.3008Q58.3945 54.3691 58.9219 53.9912Q59.4492 53.6133 60.6621 53.6133Q61.1016 53.6133 61.4092 53.6924Q61.7168 53.7715 61.9365 53.9824Q62.1563 54.1934 62.2881 54.5361Q62.4199 54.8789 62.5078 55.4063Q62.7188 57.041 62.9736 58.7813Q63.2285 60.5215 63.5098 62.2793Q63.6152 63.0703 64.3359 63.0703Q64.5293 63.0703 64.9775 63.0264Q65.4258 62.9824 66.041 62.9209Q66.6563 62.8594 67.3682 62.7891Q68.0801 62.7188 68.792 62.6572Q69.5039 62.5957 70.1455 62.5518Q70.7871 62.5078 71.2793 62.5078Q71.5653 62.5078 71.7648 62.5896Q71.8923 62.266 72.2197 62.0244Q72.7559 61.6289 73.6348 61.6289Q75.2168 61.6289 75.3223 62.7188Q75.3926 63.4746 75.4717 64.4238Q75.5508 65.373 75.6299 66.4365Q75.709 67.5 75.7705 68.6338Q75.832 69.7676 75.8848 70.8662Q75.9375 71.9648 75.9727 72.9844Q76.0078 74.0039 76.0078 74.8477Q76.0078 75.7266 75.3838 76.166Q74.7598 76.6055 73.5645 76.6055Q73.0195 76.6055 72.7119 76.3506Q72.4043 76.0957 72.4043 75.6035Q72.4043 73.1777 72.29 71.0596Q72.1758 68.9414 72.0439 67.2891Q71.9616 66.2569 71.8861 65.4407Q71.8 65.5099 71.7012 65.5664Q71.4551 65.707 71.1387 65.707Q69.6094 65.707 68.0537 65.8037Q66.498 65.9004 64.9512 66.0586Q64.1602 66.1641 64.1602 66.8496Q64.1602 66.9023 64.1777 66.9814Q64.1953 67.0605 64.1953 67.1133Q64.4063 68.6426 64.5908 69.9785Q64.7754 71.3145 64.9072 72.3604Q65.0391 73.4063 65.1182 74.1006Q65.1973 74.7949 65.1973 75.0234Q65.1973 75.6563 65.0742 76.0869Q64.9512 76.5176 64.6699 76.79Q64.3887 77.0625 63.9229 77.1768Q63.457 77.291 62.7539 77.291Q62.0859 77.291 61.7695 76.9746Q61.4531 76.6582 61.418 76.0078Q61.3125 73.9336 61.084 71.833Q60.8555 69.7324 60.5566 67.6406Q60.3984 66.8848 59.7656 66.8848Q59.7129 66.8848 59.6426 66.9023Q59.5723 66.9199 59.5195 66.9199Q58.4297 67.166 57.4629 67.4121Q56.4961 67.6582 55.6523 67.9395Q55.1777 68.0977 54.8086 68.1592Q54.4395 68.2207 54.1406 68.2207Q53.8003 68.2207 53.6095 67.9654Q54.2354 70.3547 54.8613 73.6523Q54.8965 73.8457 54.9141 74.0039Q54.9316 74.1621 54.9316 74.3027Q54.9316 74.707 54.7471 74.9971Q54.5625 75.2871 54.2637 75.4717Q53.9648 75.6563 53.5957 75.7529Q53.2266 75.8496 52.8574 75.8496Q52.1191 75.8496 51.7939 75.6914Q51.4688 75.5332 51.3809 75.0938Q50.8711 72.4219 50.3877 70.3477Q49.9043 68.2734 49.4385 66.8584Q48.9727 65.4434 48.5156 64.7051Q48.0586 63.9668 47.6016 63.9668Q47.1445 63.9668 46.749 64.5381Q46.3535 65.1094 45.9844 66.3223Q45.6152 67.5352 45.2725 69.3984Q44.9297 71.2617 44.6133 73.8457Q44.5254 74.5488 43.9102 74.9707Q43.2949 75.3926 42.3457 75.3926Q41.7129 75.3926 41.3789 75.1289Q41.0449 74.8652 41.0098 74.4082Q40.8516 70.752 40.667 68.3877Q40.4824 66.0234 40.3242 64.5908Q40.166 63.1582 40.0605 62.4551Q39.9551 61.752 39.9551 61.418Q39.9551 61.1543 40.1836 60.8994Q40.4121 60.6445 40.7813 60.4424Q41.1504 60.2402 41.6162 60.1084Q42.082 59.9766 42.5566 59.9766Q42.8203 59.9766 43.0049 60.1172Q43.1895 60.2578 43.3301 60.6533Q43.4707 61.0488 43.585 61.7607Q43.6992 62.4727 43.8047 63.6152Q43.875 63.9668 43.9365 64.1514Q43.998 64.3359 44.1035 64.3359Q44.2617 64.3359 44.4199 63.791Q45.7031 60.082 48.1289 60.082Q49.2539 60.082 50.1768 60.7852Q51.0996 61.4883 51.8994 63.0791Q52.6606 64.5932 53.3502 67.0149Q53.3496 66.9853 53.3496 66.9551Q53.3496 66.7617 53.3848 66.5068Q53.4199 66.252 53.5166 65.9971Q53.6133 65.7422 53.7979 65.5225Q53.9824 65.3027 54.2988 65.1621Q55.0371 64.8633 56.2676 64.5381Q57.498 64.2129 59.0449 63.9316Q59.3965 63.8438 59.5986 63.6416Q59.8008 63.4395 59.8008 63.0352L59.8008 62.8506Q59.8008 62.7539 59.7656 62.6484Q59.4844 61.0313 59.2295 59.7041Q58.9746 58.377 58.79 57.4277Q58.6055 56.4785 58.5 55.9336Q58.3945 55.3887 58.3945 55.3008ZM281.479 55.3008Q281.479 54.3691 282.006 53.9912Q282.533 53.6133 283.746 53.6133Q284.186 53.6133 284.493 53.6924Q284.801 53.7715 285.021 53.9824Q285.24 54.1934 285.372 54.5361Q285.504 54.8789 285.592 55.4063Q285.803 57.041 286.058 58.7813Q286.313 60.5215 286.594 62.2793Q286.699 63.0703 287.42 63.0703Q287.613 63.0703 288.062 63.0264Q288.51 62.9824 289.125 62.9209Q289.74 62.8594 290.452 62.7891Q291.164 62.7188 291.876 62.6572Q292.588 62.5957 293.229 62.5518Q293.871 62.5078 294.363 62.5078Q294.75 62.5078 294.979 62.6572Q295.207 62.8066 295.339 63.0439Q295.471 63.2813 295.515 63.5713Q295.559 63.8613 295.559 64.1602Q295.559 64.4238 295.462 64.7051Q295.365 64.9863 295.198 65.2061Q295.031 65.4258 294.785 65.5664Q294.539 65.707 294.223 65.707Q292.693 65.707 291.138 65.8037Q289.582 65.9004 288.035 66.0586Q287.244 66.1641 287.244 66.8496Q287.244 66.9023 287.262 66.9814Q287.279 67.0605 287.279 67.1133Q287.49 68.6426 287.675 69.9785Q287.859 71.3145 287.991 72.3604Q288.123 73.4063 288.202 74.1006Q288.281 74.7949 288.281 75.0234Q288.281 75.6563 288.158 76.0869Q288.035 76.5176 287.754 76.79Q287.473 77.0625 287.007 77.1768Q286.541 77.291 285.838 77.291Q285.17 77.291 284.854 76.9746Q284.537 76.6582 284.502 76.0078Q284.396 73.9336 284.168 71.833Q283.939 69.7324 283.641 67.6406Q283.482 66.8848 282.85 66.8848Q282.797 66.8848 282.727 66.9023Q282.656 66.9199 282.604 66.9199Q281.514 67.166 280.547 67.4121Q279.58 67.6582 278.736 67.9395Q278.262 68.0977 277.893 68.1592Q277.523 68.2207 277.225 68.2207Q276.82 68.2207 276.627 67.8604Q276.434 67.5 276.434 66.9551Q276.434 66.7617 276.469 66.5068Q276.504 66.252 276.601 65.9971Q276.697 65.7422 276.882 65.5225Q277.066 65.3027 277.383 65.1621Q278.121 64.8633 279.352 64.5381Q280.582 64.2129 282.129 63.9316Q282.48 63.8438 282.683 63.6416Q282.885 63.4395 282.885 63.0352L282.885 62.8506Q282.885 62.7539 282.85 62.6484Q282.568 61.0313 282.313 59.7041Q282.059 58.377 281.874 57.4277Q281.689 56.4785 281.584 55.9336Q281.479 55.3887 281.479 55.3008ZM73.1338 57.5244Q73.582 57.6738 74.0918 57.6738Q75.041 57.6738 75.5947 57.2432Q76.1484 56.8125 76.1484 56.0566Q76.1484 55.6523 75.9551 55.2744Q75.7617 54.8965 75.4365 54.6152Q75.1113 54.334 74.6895 54.167Q74.2676 54 73.8105 54Q72.8262 54 72.2373 54.457Q71.6484 54.9141 71.6484 55.6523Q71.6484 56.0918 71.8418 56.4609Q72.0352 56.8301 72.3604 57.1025Q72.6855 57.375 73.1338 57.5244ZM8.85938 60.2754Q7.875 60.2754 7.04004 60.7412Q6.20508 61.207 5.58105 62.0244Q4.95703 62.8418 4.60547 63.9492Q4.25391 65.0566 4.25391 66.3223Q4.25391 67.623 4.84277 68.7217Q5.43164 69.8203 6.47754 70.6377Q7.52344 71.4551 8.93848 71.9121Q10.3535 72.3691 12.0234 72.3691Q13.2363 72.3691 14.3174 72.1494Q15.3984 71.9297 16.207 71.5605Q17.0156 71.1914 17.4902 70.6904Q17.9648 70.1895 17.9648 69.627Q17.9648 69.1875 17.8066 68.8975Q17.6484 68.6074 17.4463 68.3701Q17.2441 68.1328 17.0859 67.8955Q16.9277 67.6582 16.9277 67.2891Q16.9277 66.9375 17.1035 66.6211Q17.2793 66.3047 17.5869 66.0586Q17.8945 65.8125 18.29 65.6719Q18.6855 65.5313 19.1074 65.5313Q19.4498 65.5313 19.7645 65.6502Q19.8176 65.4853 19.9072 65.3203Q20.127 64.916 20.5488 64.582Q21.5859 63.8086 22.7021 63.1934Q23.8184 62.5781 24.9346 62.1563Q26.0508 61.7344 27.1406 61.5059Q28.2305 61.2773 29.2324 61.2773Q30.9199 61.2773 32.4053 61.9014Q33.8906 62.5254 34.9893 63.6064Q36.0879 64.6875 36.7295 66.1377Q37.3711 67.5879 37.3711 69.2402Q37.3711 70.8574 36.6943 72.3076Q36.0176 73.7578 34.875 74.8477Q33.7324 75.9375 32.1943 76.5791Q30.6563 77.2207 28.9512 77.2207Q27.2813 77.2207 25.8574 76.6582Q24.4336 76.0957 23.3965 75.1025Q22.3594 74.1094 21.7793 72.7471Q21.3573 71.7561 21.2423 70.6302Q21.0643 71.1231 20.7773 71.5869Q20.0215 72.8086 18.6855 73.6875Q17.3496 74.5664 15.5215 75.0674Q13.6934 75.5684 11.5488 75.5684Q9.17578 75.5684 7.17188 74.9268Q5.16797 74.2852 3.71777 73.1426Q2.26758 72 1.45898 70.4355Q0.650391 68.8711 0.650391 67.0078Q0.650391 64.9688 1.3623 63.1582Q2.07422 61.3477 3.30469 59.9941Q4.53516 58.6406 6.17871 57.8496Q7.82227 57.0586 9.68555 57.0586Q10.5117 57.0586 11.2061 57.2432Q11.9004 57.4277 12.4102 57.7617Q12.9199 58.0957 13.21 58.5439Q13.5 58.9922 13.5 59.5195Q13.5 59.9414 13.3154 60.3193Q13.1309 60.6973 12.832 60.9873Q12.5332 61.2773 12.1377 61.4531Q11.7422 61.6289 11.3027 61.6289Q10.8457 61.6289 10.5732 61.418Q10.3008 61.207 10.0723 60.9521Q9.84375 60.6973 9.58008 60.4863Q9.31641 60.2754 8.85938 60.2754ZM79.5586 61.418Q79.5586 61.1543 79.7871 60.8994Q80.0156 60.6445 80.3848 60.4424Q80.7539 60.2402 81.2197 60.1084Q81.6855 59.9766 82.1602 59.9766Q82.4238 59.9766 82.6084 60.1172Q82.793 60.2578 82.9336 60.6533Q83.0742 61.0488 83.1885 61.7607Q83.3027 62.4727 83.4082 63.6152Q83.4785 63.9668 83.54 64.1514Q83.6016 64.3359 83.707 64.3359Q83.8652 64.3359 84.0234 63.791Q85.3066 60.082 87.7324 60.082Q88.8574 60.082 89.7803 60.7852Q90.7031 61.4883 91.5029 63.0791Q92.3027 64.6699 93.0234 67.2627Q93.7441 69.8555 94.4648 73.6523Q94.5 73.8457 94.5176 74.0039Q94.5352 74.1621 94.5352 74.3027Q94.5352 74.707 94.3506 74.9971Q94.166 75.2871 93.8672 75.4717Q93.5684 75.6563 93.1992 75.7529Q92.8301 75.8496 92.4609 75.8496Q91.7227 75.8496 91.3975 75.6914Q91.0723 75.5332 90.9844 75.0938Q90.4746 72.4219 89.9912 70.3477Q89.5078 68.2734 89.042 66.8584Q88.5762 65.4434 88.1191 64.7051Q87.6621 63.9668 87.2051 63.9668Q86.748 63.9668 86.3525 64.5381Q85.957 65.1094 85.5879 66.3223Q85.2188 67.5352 84.876 69.3984Q84.5332 71.2617 84.2168 73.8457Q84.1289 74.5488 83.5137 74.9707Q82.8984 75.3926 81.9492 75.3926Q81.3164 75.3926 80.9824 75.1289Q80.6484 74.8652 80.6133 74.4082Q80.4551 70.752 80.2705 68.3877Q80.0859 66.0234 79.9277 64.5908Q79.7695 63.1582 79.6641 62.4551Q79.5586 61.752 79.5586 61.418ZM153.264 60.5391Q152.367 60.2402 151.4 60.2402Q150.152 60.2402 148.781 60.7676Q147.41 61.2949 146.083 62.1914Q144.756 63.0879 143.552 64.2656Q142.348 65.4434 141.434 66.7441Q140.52 68.0449 139.983 69.3809Q139.447 70.7168 139.447 71.9297Q139.447 72.791 139.72 73.4854Q139.992 74.1797 140.493 74.6631Q140.994 75.1465 141.715 75.4102Q142.436 75.6738 143.332 75.6738Q145.248 75.6738 147.217 74.5752Q149.186 73.4766 150.926 71.2793Q151.084 71.0684 151.295 71.0684Q151.471 71.0684 151.576 71.4199Q152.016 73.6172 153.053 74.751Q154.09 75.8848 155.461 75.8848Q156.252 75.8848 157.025 75.6387Q157.799 75.3926 158.414 74.9971Q159.029 74.6016 159.407 74.1094Q159.785 73.6172 159.785 73.125Q159.785 72.6328 159.478 72.2813Q159.17 71.9297 158.766 71.9297Q158.537 71.9297 158.309 72Q158.08 72.0703 157.825 72.167Q157.57 72.2637 157.28 72.334Q156.99 72.4043 156.621 72.4043Q155.584 72.4043 154.942 71.2441Q154.301 70.084 154.23 67.5703L154.16 66.1641Q154.195 66.1641 154.23 66.1465Q154.266 66.1465 154.292 66.1377Q154.318 66.1289 154.354 66.1289Q154.74 66.1289 155.101 65.9795Q155.461 65.8301 155.742 65.5752Q156.023 65.3203 156.19 64.9775Q156.357 64.6348 156.357 64.2656Q156.357 63.3691 155.944 62.6309Q155.531 61.8926 154.846 61.3652Q154.16 60.8379 153.264 60.5391ZM195.029 60.5391Q194.133 60.2402 193.166 60.2402Q191.918 60.2402 190.547 60.7676Q189.176 61.2949 187.849 62.1914Q186.521 63.0879 185.317 64.2656Q184.113 65.4434 183.199 66.7441Q182.285 68.0449 181.749 69.3809Q181.213 70.7168 181.213 71.9297Q181.213 72.791 181.485 73.4854Q181.758 74.1797 182.259 74.6631Q182.76 75.1465 183.48 75.4102Q184.201 75.6738 185.098 75.6738Q187.014 75.6738 188.982 74.5752Q190.951 73.4766 192.691 71.2793Q192.85 71.0684 193.061 71.0684Q193.236 71.0684 193.342 71.4199Q193.781 73.6172 194.818 74.751Q195.855 75.8848 197.227 75.8848Q198.018 75.8848 198.791 75.6387Q199.564 75.3926 200.18 74.9971Q200.795 74.6016 201.173 74.1094Q201.551 73.6172 201.551 73.125Q201.551 72.6328 201.243 72.2813Q200.936 71.9297 200.531 71.9297Q200.303 71.9297 200.074 72Q199.846 72.0703 199.591 72.167Q199.336 72.2637 199.046 72.334Q198.756 72.4043 198.387 72.4043Q197.35 72.4043 196.708 71.2441Q196.066 70.084 195.996 67.5703L195.926 66.1641Q195.961 66.1641 195.996 66.1465Q196.031 66.1465 196.058 66.1377Q196.084 66.1289 196.119 66.1289Q196.506 66.1289 196.866 65.9795Q197.227 65.8301 197.508 65.5752Q197.789 65.3203 197.956 64.9775Q198.123 64.6348 198.123 64.2656Q198.123 63.3691 197.71 62.6309Q197.297 61.8926 196.611 61.3652Q195.926 60.8379 195.029 60.5391ZM164.725 60.3457Q165.902 60.3457 167.15 60.6533Q168.398 60.9609 169.436 61.4443Q170.473 61.9277 171.141 62.5254Q171.809 63.123 171.809 63.6855Q171.809 63.9668 171.563 64.3096Q171.316 64.6523 170.965 64.96Q170.613 65.2676 170.2 65.4697Q169.787 65.6719 169.471 65.6719Q169.049 65.6719 168.53 65.3203Q168.012 64.9688 167.388 64.5381Q166.764 64.1074 166.025 63.7559Q165.287 63.4043 164.426 63.4043Q163.863 63.4043 163.503 63.6768Q163.143 63.9492 163.143 64.4414Q163.143 64.8809 163.564 65.3291Q163.986 65.7773 164.681 66.252Q165.375 66.7266 166.254 67.2539Q167.133 67.7813 168.056 68.3789Q168.979 68.9766 169.857 69.6797Q170.736 70.3828 171.431 71.209Q172.125 72.0352 172.547 73.0107Q172.969 73.9863 172.969 75.1289Q172.969 76.1133 172.617 76.9219Q172.266 77.7305 171.615 78.3105Q170.965 78.8906 170.068 79.207Q169.172 79.5234 168.1 79.5234Q166.746 79.5234 165.604 79.1104Q164.461 78.6973 163.635 77.9766Q162.809 77.2559 162.343 76.2539Q161.877 75.252 161.877 74.0566Q161.877 72.5098 162.431 71.8066Q162.984 71.1035 164.18 71.1035Q164.918 71.1035 165.357 71.3848Q165.797 71.666 165.797 72.0703Q165.797 72.2813 165.727 72.501Q165.656 72.7207 165.577 72.958Q165.498 73.1953 165.437 73.459Q165.375 73.7227 165.375 73.9863Q165.375 74.4434 165.586 74.8652Q165.797 75.2871 166.157 75.6123Q166.518 75.9375 166.992 76.1309Q167.467 76.3242 167.994 76.3242Q169.4 76.3242 169.4 75.1641Q169.4 74.25 168.68 73.4326Q167.959 72.6152 166.869 71.833Q165.779 71.0508 164.522 70.2598Q163.266 69.4688 162.176 68.6074Q161.086 67.7461 160.365 66.7705Q159.645 65.7949 159.645 64.6523Q159.645 63.7031 160.04 62.9121Q160.436 62.1211 161.121 61.5498Q161.807 60.9785 162.729 60.6621Q163.652 60.3457 164.725 60.3457ZM273.393 60.6533Q272.145 60.3457 270.967 60.3457Q269.895 60.3457 268.972 60.6621Q268.049 60.9785 267.363 61.5498Q266.678 62.1211 266.282 62.9121Q265.887 63.7031 265.887 64.6523Q265.887 65.7949 266.607 66.7705Q267.328 67.7461 268.418 68.6074Q269.508 69.4688 270.765 70.2598Q272.021 71.0508 273.111 71.833Q274.201 72.6152 274.922 73.4326Q275.643 74.25 275.643 75.1641Q275.643 76.3242 274.236 76.3242Q273.709 76.3242 273.234 76.1309Q272.76 75.9375 272.399 75.6123Q272.039 75.2871 271.828 74.8652Q271.617 74.4434 271.617 73.9863Q271.617 73.7227 271.679 73.459Q271.74 73.1953 271.819 72.958Q271.898 72.7207 271.969 72.501Q272.039 72.2813 272.039 72.0703Q272.039 71.666 271.6 71.3848Q271.16 71.1035 270.422 71.1035Q269.227 71.1035 268.673 71.8066Q268.119 72.5098 268.119 74.0566Q268.119 75.252 268.585 76.2539Q269.051 77.2559 269.877 77.9766Q270.703 78.6973 271.846 79.1104Q272.988 79.5234 274.342 79.5234Q275.414 79.5234 276.311 79.207Q277.207 78.8906 277.857 78.3105Q278.508 77.7305 278.859 76.9219Q279.211 76.1133 279.211 75.1289Q279.211 73.9863 278.789 73.0107Q278.367 72.0352 277.673 71.209Q276.979 70.3828 276.1 69.6797Q275.221 68.9766 274.298 68.3789Q273.375 67.7813 272.496 67.2539Q271.617 66.7266 270.923 66.252Q270.229 65.7773 269.807 65.3291Q269.385 64.8809 269.385 64.4414Q269.385 63.9492 269.745 63.6768Q270.105 63.4043 270.668 63.4043Q271.529 63.4043 272.268 63.7559Q273.006 64.1074 273.63 64.5381Q274.254 64.9688 274.772 65.3203Q275.291 65.6719 275.713 65.6719Q276.029 65.6719 276.442 65.4697Q276.855 65.2676 277.207 64.96Q277.559 64.6523 277.805 64.3096Q278.051 63.9668 278.051 63.6855Q278.051 63.123 277.383 62.5254Q276.715 61.9277 275.678 61.4443Q274.641 60.9609 273.393 60.6533ZM100.775 73.0195Q100.055 71.7363 100.055 69.3809Q100.055 68.3965 100.187 67.3857Q100.318 66.375 100.468 65.5049Q100.617 64.6348 100.749 63.958Q100.881 63.2813 100.881 62.9648Q100.881 62.6484 100.661 62.3672Q100.441 62.0859 100.063 61.875Q99.6855 61.6641 99.1582 61.541Q98.6309 61.418 98.0332 61.418Q97.3652 61.418 96.9346 61.7256Q96.5039 62.0332 96.4512 62.543Q96.3105 63.7383 96.1963 64.7578Q96.082 65.7773 96.0117 66.6475Q95.9414 67.5176 95.9063 68.2734Q95.8711 69.0293 95.8711 69.6973Q95.8711 71.4551 96.3633 72.9229Q96.8555 74.3906 97.7256 75.4541Q98.5957 76.5176 99.7998 77.1064Q101.004 77.6953 102.428 77.6953Q104.432 77.6953 106.049 76.7637Q107.666 75.832 108.8 74.1006Q109.934 72.3691 110.54 69.8906Q111.146 67.4121 111.146 64.3008Q111.146 63.1582 110.417 62.5605Q109.688 61.9629 108.369 61.9629Q107.332 61.9629 106.857 62.2178Q106.383 62.4727 106.383 63.0352Q106.383 63.4043 106.453 63.8086Q106.523 64.2129 106.603 64.7314Q106.682 65.25 106.752 65.9092Q106.822 66.5684 106.822 67.4648Q106.822 68.9414 106.532 70.1982Q106.242 71.4551 105.715 72.3691Q105.188 73.2832 104.458 73.793Q103.729 74.3027 102.867 74.3027Q101.496 74.3027 100.775 73.0195ZM235.529 73.0195Q234.809 71.7363 234.809 69.3809Q234.809 68.3965 234.94 67.3857Q235.072 66.375 235.222 65.5049Q235.371 64.6348 235.503 63.958Q235.635 63.2813 235.635 62.9648Q235.635 62.6484 235.415 62.3672Q235.195 62.0859 234.817 61.875Q234.439 61.6641 233.912 61.541Q233.385 61.418 232.787 61.418Q232.119 61.418 231.688 61.7256Q231.258 62.0332 231.205 62.543Q231.064 63.7383 230.95 64.7578Q230.836 65.7773 230.766 66.6475Q230.695 67.5176 230.66 68.2734Q230.625 69.0293 230.625 69.6973Q230.625 71.4551 231.117 72.9229Q231.609 74.3906 232.479 75.4541Q233.35 76.5176 234.554 77.1064Q235.758 77.6953 237.182 77.6953Q239.186 77.6953 240.803 76.7637Q242.42 75.832 243.554 74.1006Q244.688 72.3691 245.294 69.8906Q245.9 67.4121 245.9 64.3008Q245.9 63.1582 245.171 62.5605Q244.441 61.9629 243.123 61.9629Q242.086 61.9629 241.611 62.2178Q241.137 62.4727 241.137 63.0352Q241.137 63.4043 241.207 63.8086Q241.277 64.2129 241.356 64.7314Q241.436 65.25 241.506 65.9092Q241.576 66.5684 241.576 67.4648Q241.576 68.9414 241.286 70.1982Q240.996 71.4551 240.469 72.3691Q239.941 73.2832 239.212 73.793Q238.482 74.3027 237.621 74.3027Q236.25 74.3027 235.529 73.0195ZM219.938 61.8926Q220.781 61.8926 221.537 62.0244Q222.293 62.1563 222.908 62.3057Q223.523 62.4551 223.963 62.5869Q224.402 62.7188 224.596 62.7188Q224.754 62.7188 224.895 62.5518Q225.035 62.3848 225.246 62.1914Q225.457 61.998 225.809 61.8311Q226.16 61.6641 226.74 61.6641Q227.408 61.6641 227.795 62.0068Q228.182 62.3496 228.182 62.8594Q228.182 69.293 227.742 73.7842Q227.303 78.2754 226.318 81.0879Q225.334 83.9004 223.77 85.166Q222.205 86.4316 219.973 86.4316Q218.953 86.4316 217.854 85.9746Q216.756 85.5176 215.842 84.8057Q214.928 84.0938 214.339 83.2324Q213.75 82.3711 213.75 81.5801Q213.75 81.3164 214.031 80.9648Q214.313 80.6133 214.717 80.2793Q215.121 79.9453 215.561 79.7168Q216 79.4883 216.316 79.4883Q216.65 79.4883 216.879 79.7607Q217.107 80.0332 217.31 80.4375Q217.512 80.8418 217.723 81.3252Q217.934 81.8086 218.25 82.2129Q218.566 82.6172 219.023 82.8896Q219.48 83.1621 220.166 83.1621Q223.998 83.1621 224.666 71.4551Q224.666 70.9277 224.367 70.9277Q224.121 70.9277 223.98 71.1738Q222.328 73.4063 220.122 74.5225Q217.916 75.6387 215.227 75.6387Q213.979 75.6387 212.924 75.2607Q211.869 74.8828 211.104 74.2061Q210.34 73.5293 209.918 72.5889Q209.496 71.6484 209.496 70.5234Q209.496 69.416 209.892 68.335Q210.287 67.2539 210.999 66.2959Q211.711 65.3379 212.695 64.5293Q213.68 63.7207 214.84 63.1318Q216 62.543 217.292 62.2178Q218.584 61.8926 219.938 61.8926ZM128.215 71.7539Q128.725 71.3145 129.217 71.3145Q129.498 71.3145 129.727 71.4551Q129.955 71.5957 130.236 71.8945Q130.5 72.2988 130.614 72.5537Q130.729 72.8086 130.729 73.0547Q130.729 73.582 130.201 74.0566Q129.357 74.7598 128.373 75.3135Q127.389 75.8672 126.316 76.2539Q125.244 76.6406 124.102 76.8428Q122.959 77.0449 121.834 77.0449Q120.41 77.0449 119.162 76.6846Q117.914 76.3242 116.938 75.6563Q115.963 74.9883 115.295 74.0479Q114.627 73.1074 114.346 71.9297Q114.188 71.4375 114.056 71.2881Q113.924 71.1387 113.625 71.1387Q112.975 71.1387 112.623 70.8223Q112.271 70.5059 112.271 69.9082Q112.271 69.6621 112.307 69.5918L112.342 69.2402Q112.43 68.6074 112.685 68.3262Q112.939 68.0449 113.484 68.0449L113.748 68.0449Q114.486 68.0449 114.785 67.3594Q115.33 66.1465 116.174 65.1445Q117.018 64.1426 118.072 63.4307Q119.127 62.7188 120.331 62.3232Q121.535 61.9277 122.783 61.9277Q124.084 61.9277 125.218 62.3057Q126.352 62.6836 127.195 63.3516Q128.039 64.0195 128.522 64.916Q129.006 65.8125 129.006 66.8496Q129.006 67.5703 128.725 68.168Q128.443 68.7656 127.916 69.2139Q127.389 69.6621 126.642 69.9434Q125.895 70.2246 124.945 70.3125L118.846 70.9277Q118.494 70.9277 118.274 71.1035Q118.055 71.2793 118.055 71.5781Q118.055 72.0352 118.397 72.457Q118.74 72.8789 119.312 73.2041Q119.883 73.5293 120.63 73.7227Q121.377 73.916 122.168 73.916Q122.924 73.916 123.724 73.7666Q124.523 73.6172 125.306 73.3359Q126.088 73.0547 126.826 72.6592Q127.564 72.2637 128.215 71.7539ZM262.969 71.7539Q263.479 71.3145 263.971 71.3145Q264.252 71.3145 264.48 71.4551Q264.709 71.5957 264.99 71.8945Q265.254 72.2988 265.368 72.5537Q265.482 72.8086 265.482 73.0547Q265.482 73.582 264.955 74.0566Q264.111 74.7598 263.127 75.3135Q262.143 75.8672 261.07 76.2539Q259.998 76.6406 258.855 76.8428Q257.713 77.0449 256.588 77.0449Q255.164 77.0449 253.916 76.6846Q252.668 76.3242 251.692 75.6563Q250.717 74.9883 250.049 74.0479Q249.381 73.1074 249.1 71.9297Q248.941 71.4375 248.81 71.2881Q248.678 71.1387 248.379 71.1387Q247.729 71.1387 247.377 70.8223Q247.025 70.5059 247.025 69.9082Q247.025 69.6621 247.061 69.5918L247.096 69.2402Q247.184 68.6074 247.438 68.3262Q247.693 68.0449 248.238 68.0449L248.502 68.0449Q249.24 68.0449 249.539 67.3594Q250.084 66.1465 250.928 65.1445Q251.771 64.1426 252.826 63.4307Q253.881 62.7188 255.085 62.3232Q256.289 61.9277 257.537 61.9277Q258.838 61.9277 259.972 62.3057Q261.105 62.6836 261.949 63.3516Q262.793 64.0195 263.276 64.916Q263.76 65.8125 263.76 66.8496Q263.76 67.5703 263.479 68.168Q263.197 68.7656 262.67 69.2139Q262.143 69.6621 261.396 69.9434Q260.648 70.2246 259.699 70.3125L253.6 70.9277Q253.248 70.9277 253.028 71.1035Q252.809 71.2793 252.809 71.5781Q252.809 72.0352 253.151 72.457Q253.494 72.8789 254.065 73.2041Q254.637 73.5293 255.384 73.7227Q256.131 73.916 256.922 73.916Q257.678 73.916 258.478 73.7666Q259.277 73.6172 260.06 73.3359Q260.842 73.0547 261.58 72.6592Q262.318 72.2637 262.969 71.7539ZM151.4 65.4521Q151.137 65.7246 150.82 66.3223Q149.115 69.3809 147.41 70.9102Q145.705 72.4395 144.264 72.4395Q143.701 72.4395 143.376 72.1055Q143.051 71.7715 143.051 71.1738Q143.051 70.5059 143.438 69.6621Q143.824 68.8184 144.457 67.957Q145.09 67.0957 145.907 66.2783Q146.725 65.4609 147.577 64.8193Q148.43 64.1777 149.256 63.791Q150.082 63.4043 150.75 63.4043Q151.365 63.4043 151.734 63.7471Q152.104 64.0898 152.438 64.5469Q152.543 64.7051 152.543 64.8457Q152.543 65.0391 152.156 65.0918Q151.664 65.1797 151.4 65.4521ZM193.166 65.4521Q192.902 65.7246 192.586 66.3223Q190.881 69.3809 189.176 70.9102Q187.471 72.4395 186.029 72.4395Q185.467 72.4395 185.142 72.1055Q184.816 71.7715 184.816 71.1738Q184.816 70.5059 185.203 69.6621Q185.59 68.8184 186.223 67.957Q186.855 67.0957 187.673 66.2783Q188.49 65.4609 189.343 64.8193Q190.195 64.1777 191.021 63.791Q191.848 63.4043 192.516 63.4043Q193.131 63.4043 193.5 63.7471Q193.869 64.0898 194.203 64.5469Q194.309 64.7051 194.309 64.8457Q194.309 65.0391 193.922 65.0918Q193.43 65.1797 193.166 65.4521ZM29.3379 74.0566Q30.0762 74.0566 30.8672 73.7578Q31.6582 73.459 32.3174 72.8877Q32.9766 72.3164 33.4072 71.4902Q33.8379 70.6641 33.8379 69.627Q33.8379 68.5723 33.4512 67.6582Q33.0645 66.7441 32.3877 66.0674Q31.7109 65.3906 30.7881 65.0039Q29.8652 64.6172 28.793 64.6172Q26.8418 64.6172 25.8047 65.6279Q24.7676 66.6387 24.7676 68.7305Q24.7676 69.873 25.1104 70.8486Q25.4531 71.8242 26.0684 72.5361Q26.6836 73.248 27.5186 73.6523Q28.3535 74.0566 29.3379 74.0566ZM215.771 72.4043Q218.18 72.4043 220.184 70.8838Q222.188 69.3633 223.611 66.4629Q223.646 66.3574 223.664 66.2959Q223.682 66.2344 223.682 66.1641Q223.682 65.9883 223.313 65.7949Q222.943 65.6016 222.346 65.4609Q221.748 65.3203 220.983 65.2236Q220.219 65.127 219.445 65.127Q218.197 65.127 217.037 65.5488Q215.877 65.9707 214.98 66.6738Q214.084 67.377 213.539 68.2734Q212.994 69.1699 212.994 70.1367Q212.994 71.1738 213.759 71.7891Q214.523 72.4043 215.771 72.4043ZM124.295 67.2188Q124.559 67.166 124.752 66.9639Q124.945 66.7617 124.945 66.4629Q124.945 66.1992 124.752 65.9707Q124.559 65.7422 124.225 65.5576Q123.891 65.373 123.451 65.2676Q123.012 65.1621 122.52 65.1621Q121.799 65.1621 121.043 65.373Q120.287 65.584 119.672 65.9268Q119.057 66.2695 118.67 66.6826Q118.283 67.0957 118.283 67.5Q118.283 67.9043 118.775 67.9043Q119.074 67.9043 119.742 67.834Q120.41 67.7637 121.219 67.667Q122.027 67.5703 122.854 67.4473Q123.68 67.3242 124.295 67.2188ZM259.049 67.2188Q259.313 67.166 259.506 66.9639Q259.699 66.7617 259.699 66.4629Q259.699 66.1992 259.506 65.9707Q259.313 65.7422 258.979 65.5576Q258.645 65.373 258.205 65.2676Q257.766 65.1621 257.273 65.1621Q256.553 65.1621 255.797 65.373Q255.041 65.584 254.426 65.9268Q253.811 66.2695 253.424 66.6826Q253.037 67.0957 253.037 67.5Q253.037 67.9043 253.529 67.9043Q253.828 67.9043 254.496 67.834Q255.164 67.7637 255.973 67.667Q256.781 67.5703 257.607 67.4473Q258.434 67.3242 259.049 67.2188ZM296.938 76.9307Q297.387 77.0801 297.896 77.0801Q298.846 77.0801 299.399 76.6494Q299.953 76.2188 299.953 75.4629Q299.953 75.0586 299.76 74.6807Q299.566 74.3027 299.241 74.0215Q298.916 73.7402 298.494 73.5732Q298.072 73.4063 297.615 73.4063Q296.631 73.4063 296.042 73.8633Q295.453 74.3203 295.453 75.0586Q295.453 75.498 295.646 75.8672Q295.84 76.2363 296.165 76.5088Q296.49 76.7813 296.938 76.9307Z" />
    </g>
  </g>
  <g id="Arrows--right-arrow-svgrepo-com" transform="matrix(0.98768836 0.15643448 -0.15643448 0.98768836 345.08142 41.001526)">
    <g id="right-arrow-svgrepo-com">
      <path d="M-753.636 -491.883L-651.885 -491.883L-651.885 -390.131L-753.636 -390.131L-753.636 -491.883Z" id="Background" fill="none" fill-rule="evenodd" stroke="none" />
      <g clip-path="url(#mask_1)">
        <g id="Group" transform="translate(-0.00024844342 26.545485)">
          <path d="M-652.906 -478.059C-660.922 -481.913 -669.092 -485.15 -675.566 -491.316C-676.954 -492.549 -678.649 -491.624 -678.804 -489.929C-679.266 -486.075 -679.42 -482.375 -679.42 -478.676C-686.819 -480.988 -696.839 -479.446 -703.93 -480.063C-719.037 -481.142 -734.144 -484.533 -749.251 -484.071C-750.639 -484.071 -751.718 -482.375 -750.947 -481.142C-746.939 -475.13 -741.852 -470.197 -737.073 -464.956C-742.16 -458.636 -748.172 -453.395 -753.105 -446.92C-754.184 -445.533 -753.567 -443.529 -751.718 -443.375C-725.666 -441.371 -702.697 -459.715 -677.725 -464.032C-678.187 -459.407 -678.033 -454.782 -677.879 -450.158C-677.879 -448.616 -675.875 -447.691 -674.641 -448.77C-666.317 -457.095 -658.61 -465.727 -651.981 -475.439C-651.673 -476.363 -652.135 -477.597 -652.906 -478.059L-652.906 -478.059ZM-747.709 -447.229C-743.393 -452.316 -738.769 -457.403 -735.377 -463.106C-734.452 -462.952 -733.373 -464.032 -733.99 -465.11C-737.535 -470.352 -741.852 -474.976 -745.705 -480.063C-733.682 -479.909 -721.812 -477.751 -709.788 -476.518C-698.843 -475.284 -687.282 -474.668 -676.183 -474.359C-674.796 -474.359 -674.333 -476.209 -675.412 -476.98C-675.566 -477.134 -675.72 -477.134 -675.875 -477.288C-675.875 -480.371 -675.72 -483.454 -675.412 -486.383C-669.708 -481.913 -663.234 -478.984 -656.606 -475.901C-662.001 -468.348 -668.013 -461.411 -674.333 -454.782C-674.487 -458.636 -674.796 -462.49 -674.641 -466.344C-674.641 -467.268 -675.412 -467.731 -676.183 -467.731C-676.491 -468.193 -676.954 -468.502 -677.724 -468.348C-702.08 -465.573 -723.199 -447.537 -747.709 -447.229L-747.709 -447.229Z" id="Shape" fill="#292929" fill-rule="evenodd" stroke="none" />
        </g>
      </g>
    </g>
  </g>
</svg>