<?xml version="1.0" encoding="utf-8"?>
<svg width="136.90399px" height="24px" viewBox="0 0 136.90399 24" version="1.1" xmlns:xlink="http://www.w3.org/1999/xlink" xmlns="http://www.w3.org/2000/svg">
  <g id="Waggle-Text-logo">
    <g id="Fill-Colour" transform="translate(34.10205 1.9061279)">
      <path d="M1.28235 9.44448C1.28235 8.79725 1.6468 8.2421 2.17024 7.97278L17.7233 7.97278C18.2468 8.2421 18.6112 8.79725 18.6112 9.44448C18.6112 9.86237 18.4596 10.2412 18.2102 10.5313L1.68338 10.5313C1.43395 10.2412 1.28235 9.86237 1.28235 9.44448L1.28235 9.44448Z" id="Shape" fill="#F7D448" fill-rule="evenodd" stroke="none" />
      <path d="M15.3946 3.78784C15.7548 3.99895 16.1358 4.3065 16.4358 4.71135C16.7064 5.07624 16.9146 5.52366 16.9836 6.06664L2.90991 6.06664C2.97898 5.52366 3.18714 5.07624 3.45776 4.71135C3.75767 4.3065 4.1388 3.99895 4.499 3.78784L15.3946 3.78784L15.3946 3.78784Z" id="Shape" fill="#F7D448" fill-rule="evenodd" stroke="none" />
      <path d="M5.7226 1.88176C6.51179 0.812303 8.03919 0 9.94677 0C11.8543 0 13.3817 0.812303 14.1709 1.88176L5.7226 1.88176L5.7226 1.88176Z" id="Shape" fill="#F7D448" fill-rule="evenodd" stroke="none" />
      <path d="M0.641174 13.6685C0.641174 13.1029 0.986158 12.6277 1.46147 12.4374L18.432 12.4374C18.9074 12.6277 19.2523 13.1029 19.2523 13.6685C19.2523 14.0429 19.1011 14.3783 18.8589 14.6181L13.361 14.6181C12.6761 13.3861 11.4254 12.5191 9.94674 12.5191C8.46808 12.5191 7.21738 13.3861 6.53261 14.6181L1.03455 14.6181C0.792507 14.3783 0.641174 14.0429 0.641174 13.6685L0.641174 13.6685Z" id="Shape" fill="#F7D448" fill-rule="evenodd" stroke="none" />
      <path d="M1.93216 20.1878C0.876944 20.1878 0 19.3173 0 18.2174C0 17.4946 0.379734 16.8673 0.941756 16.5241L5.97111 16.5241C5.96312 16.6362 5.95904 16.75 5.95904 16.8647L5.95904 20.1878L1.93216 20.1878L1.93216 20.1878Z" id="Shape" fill="#F7D448" fill-rule="evenodd" stroke="none" />
      <path d="M9.94678 14.0829C10.8812 14.0829 11.7435 14.704 12.1456 15.6944L12.2131 15.8604L12.241 15.9655C12.3247 16.2461 12.3708 16.5484 12.3708 16.8647L12.3708 20.1878L7.52289 20.1878L7.52289 16.8647C7.52289 16.5484 7.5652 16.2183 7.64895 15.9377L7.74799 15.6944C8.15015 14.704 9.01241 14.0829 9.94678 14.0829L9.94678 14.0829Z" id="Shape" fill="#F7D448" fill-rule="evenodd" stroke="none" />
      <path d="M19.8936 18.2174C19.8936 19.3173 19.0167 20.1878 17.9613 20.1878L13.9346 20.1878L13.9346 16.8647C13.9346 16.75 13.9305 16.6362 13.9225 16.5241L18.9518 16.5241C19.5138 16.8673 19.8936 17.4946 19.8936 18.2174L19.8936 18.2174Z" id="Shape" fill="#F7D448" fill-rule="evenodd" stroke="none" />
    </g>
    <path d="M52.0634 24C54.1954 24 55.9016 22.252 55.9016 20.1235C55.9016 19.0341 55.4565 18.048 54.7383 17.3426C55.0686 16.8343 55.2605 16.2262 55.2605 15.5746C55.2605 14.5981 54.8306 13.7206 54.1481 13.1272C54.4478 12.6042 54.6193 11.997 54.6193 11.3506C54.6193 10.1048 53.9834 9.00489 53.0165 8.36982C53.0171 7.20565 52.6275 6.23522 52.0689 5.48199C51.6205 4.87732 51.0742 4.42469 50.5561 4.10672C49.7745 1.62635 47.0351 0 44.0488 0C41.0625 0 38.3232 1.62635 37.5415 4.10672C37.0234 4.42469 36.4771 4.87732 36.0289 5.48199C35.4701 6.23522 35.0805 7.20565 35.0812 8.36982C34.1143 9.00489 33.4783 10.1048 33.4783 11.3506C33.4783 11.997 33.6498 12.6042 33.9496 13.1272C33.2671 13.7206 32.8372 14.5981 32.8372 15.5746C32.8372 16.2262 33.0291 16.8343 33.3594 17.3426C32.6411 18.048 32.196 19.0341 32.196 20.1235C32.196 22.252 33.9022 24 36.0342 24L52.0634 24L52.0634 24ZM52.0634 22.0939C53.1187 22.0939 53.9956 21.2234 53.9956 20.1235C53.9956 19.4007 53.6158 18.7734 53.0538 18.4303L48.0245 18.4303C48.0325 18.5423 48.0366 18.6561 48.0366 18.7708L48.0366 22.0939L52.0634 22.0939L52.0634 22.0939ZM44.0488 1.9061C42.1412 1.9061 40.6138 2.7184 39.8246 3.78786L48.273 3.78786C47.4838 2.7184 45.9564 1.9061 44.0488 1.9061L44.0488 1.9061ZM50.5378 6.61748C50.2379 6.21263 49.8568 5.90508 49.4967 5.69397L38.601 5.69397C38.2408 5.90508 37.8597 6.21263 37.5598 6.61748C37.2892 6.98236 37.081 7.42979 37.012 7.97277L51.0856 7.97277C51.0167 7.42979 50.8084 6.98236 50.5378 6.61748L50.5378 6.61748ZM36.2723 9.87888C35.7489 10.1482 35.3844 10.7033 35.3844 11.3506C35.3844 11.7685 35.536 12.1473 35.7854 12.4374L52.3123 12.4374C52.5616 12.1473 52.7132 11.7685 52.7132 11.3506C52.7132 10.7033 52.3489 10.1482 51.8253 9.87888L36.2723 9.87888L36.2723 9.87888ZM35.5635 14.3435C35.0882 14.5338 34.7432 15.009 34.7432 15.5746C34.7432 15.949 34.8946 16.2844 35.1366 16.5241L40.6347 16.5241C41.3194 15.2922 42.5701 14.4252 44.0488 14.4252C45.5274 14.4252 46.7781 15.2922 47.463 16.5241L52.961 16.5241C53.2031 16.2844 53.3544 15.949 53.3544 15.5746C53.3544 15.009 53.0094 14.5338 52.5341 14.3435L35.5635 14.3435L35.5635 14.3435ZM34.1021 20.1235C34.1021 21.2234 34.9791 22.0939 36.0343 22.0939L40.0611 22.0939L40.0611 18.7708C40.0611 18.6561 40.0652 18.5423 40.0732 18.4303L35.0439 18.4303C34.4818 18.7734 34.1021 19.4007 34.1021 20.1235L34.1021 20.1235Z" id="Outline" fill="#292929" fill-rule="evenodd" stroke="none" />
    <g id="Text" transform="translate(0 0.59198)">
      <path d="M128.424 3.90398L128.424 9.50398L135.944 9.50398L135.944 13.056L128.424 13.056L128.424 18.976L136.904 18.976L136.904 22.624L123.944 22.624L123.944 0.255981L136.904 0.255981L136.904 3.90398L128.424 3.90398Z" id="E" fill="#292929" fill-rule="evenodd" stroke="none" />
      <path d="M113.736 19.072L121.096 19.072L121.096 22.624L109.256 22.624L109.256 0.287994L113.736 0.287994L113.736 19.072Z" id="L" fill="#292929" fill-rule="evenodd" stroke="none" />
      <path d="M75.656 7.008C75.144 6.06933 74.44 5.35467 73.544 4.864C72.648 4.37333 71.6027 4.128 70.408 4.128C69.0853 4.128 67.912 4.42667 66.888 5.024C65.864 5.62133 65.064 6.47467 64.488 7.584C63.912 8.69333 63.624 9.97333 63.624 11.424C63.624 12.9173 63.9173 14.2187 64.504 15.328C65.0907 16.4373 65.9067 17.2907 66.952 17.888C67.9973 18.4853 69.2133 18.784 70.6 18.784C72.3067 18.784 73.704 18.3307 74.792 17.424C75.88 16.5173 76.5947 15.2533 76.936 13.632L69.256 13.632L69.256 10.208L81.352 10.208L81.352 14.112C81.0533 15.6693 80.4133 17.1093 79.432 18.432C78.4507 19.7547 77.1867 20.816 75.64 21.616C74.0933 22.416 72.36 22.816 70.44 22.816C68.2853 22.816 66.3387 22.3307 64.6 21.36C62.8613 20.3893 61.496 19.04 60.504 17.312C59.512 15.584 59.016 13.6213 59.016 11.424C59.016 9.22667 59.512 7.25867 60.504 5.52C61.496 3.78133 62.8613 2.42667 64.6 1.456C66.3387 0.485333 68.2747 0 70.408 0C72.9253 0 75.112 0.613333 76.968 1.84C78.824 3.06667 80.104 4.78933 80.808 7.008L75.656 7.008Z" id="G" fill="#292929" fill-rule="evenodd" stroke="none" />
      <path d="M100.232 7.008C99.72 6.06933 99.016 5.35467 98.12 4.864C97.224 4.37333 96.1786 4.128 94.984 4.128C93.6613 4.128 92.488 4.42667 91.464 5.024C90.44 5.62133 89.64 6.47467 89.064 7.584C88.488 8.69333 88.2 9.97333 88.2 11.424C88.2 12.9173 88.4933 14.2187 89.08 15.328C89.6666 16.4373 90.4826 17.2907 91.528 17.888C92.5733 18.4853 93.7893 18.784 95.176 18.784C96.8826 18.784 98.28 18.3307 99.368 17.424C100.456 16.5173 101.171 15.2533 101.512 13.632L93.832 13.632L93.832 10.208L105.928 10.208L105.928 14.112C105.629 15.6693 104.989 17.1093 104.008 18.432C103.027 19.7547 101.763 20.816 100.216 21.616C98.6693 22.416 96.936 22.816 95.016 22.816C92.8613 22.816 90.9146 22.3307 89.176 21.36C87.4373 20.3893 86.072 19.04 85.08 17.312C84.088 15.584 83.592 13.6213 83.592 11.424C83.592 9.22667 84.088 7.25867 85.08 5.52C86.072 3.78133 87.4373 2.42667 89.176 1.456C90.9146 0.485333 92.8506 0 94.984 0C97.5013 0 99.688 0.613333 101.544 1.84C103.4 3.06667 104.68 4.78933 105.384 7.008L100.232 7.008Z" id="G" fill="#292929" fill-rule="evenodd" stroke="none" />
      <path d="M31.36 0.287994L25.12 22.624L19.84 22.624L15.648 6.72L11.264 22.624L6.016 22.656L0 0.287994L4.8 0.287994L8.736 17.632L13.28 0.287994L18.272 0.287994L22.56 17.536L26.528 0.287994L31.36 0.287994Z" id="W" fill="#292929" fill-rule="evenodd" stroke="none" />
    </g>
  </g>
</svg>