<?xml version="1.0" encoding="utf-8"?>
<svg width="205.35596px" height="36px" viewBox="0 0 205.35596 36" version="1.1" xmlns:xlink="http://www.w3.org/1999/xlink" xmlns="http://www.w3.org/2000/svg">
  <g id="Waggle-Text-logo">
    <g id="Fill-Colour" transform="translate(51.153137 2.8592224)">
      <path d="M1.92352 14.1667C1.92352 13.1958 2.4702 12.3631 3.25536 11.9591L26.5849 11.9591C27.3702 12.3631 27.9168 13.1958 27.9168 14.1667C27.9168 14.7935 27.6894 15.3617 27.3154 15.797L2.52507 15.797C2.15093 15.3617 1.92352 14.7935 1.92352 14.1667L1.92352 14.1667Z" id="Shape" fill="#F7D448" fill-rule="evenodd" stroke="none" />
      <path d="M23.0919 5.68176C23.6321 5.99842 24.2037 6.45975 24.6536 7.06703C25.0595 7.61435 25.3719 8.28549 25.4753 9.09997L4.36481 9.09997C4.46841 8.28549 4.78065 7.61435 5.18659 7.06703C5.63644 6.45975 6.20814 5.99842 6.74843 5.68176L23.0919 5.68176L23.0919 5.68176Z" id="Shape" fill="#F7D448" fill-rule="evenodd" stroke="none" />
      <path d="M8.58386 2.82264C9.76766 1.21845 12.0588 0 14.9201 0C17.7815 0 20.0726 1.21845 21.2564 2.82264L8.58386 2.82264L8.58386 2.82264Z" id="Shape" fill="#F7D448" fill-rule="evenodd" stroke="none" />
      <path d="M0.961731 20.5027C0.961731 19.6544 1.47921 18.9415 2.19217 18.6561L27.648 18.6561C28.3611 18.9415 28.8784 19.6544 28.8784 20.5027C28.8784 21.0644 28.6516 21.5674 28.2884 21.9271L20.0414 21.9271C19.0141 20.0792 17.1381 18.7786 14.9201 18.7786C12.7021 18.7786 10.826 20.0792 9.79889 21.9271L1.55179 21.9271C1.18873 21.5674 0.961731 21.0644 0.961731 20.5027L0.961731 20.5027Z" id="Shape" fill="#F7D448" fill-rule="evenodd" stroke="none" />
      <path d="M2.89824 30.2816C1.31542 30.2816 0 28.9759 0 27.3261C0 26.2418 0.569601 25.301 1.41263 24.7862L8.95667 24.7862C8.94468 24.9543 8.93856 25.125 8.93856 25.297L8.93856 30.2816L2.89824 30.2816L2.89824 30.2816Z" id="Shape" fill="#F7D448" fill-rule="evenodd" stroke="none" />
      <path d="M14.9201 21.1243C16.3218 21.1243 17.6152 22.056 18.2183 23.5416L18.3196 23.7905L18.3614 23.9482C18.487 24.3692 18.5561 24.8227 18.5561 25.297L18.5561 30.2816L11.2843 30.2816L11.2843 25.297C11.2843 24.8227 11.3478 24.3274 11.4734 23.9065L11.622 23.5416C12.2252 22.056 13.5186 21.1243 14.9201 21.1243L14.9201 21.1243Z" id="Shape" fill="#F7D448" fill-rule="evenodd" stroke="none" />
      <path d="M29.8404 27.3261C29.8404 28.9759 28.525 30.2816 26.942 30.2816L20.9018 30.2816L20.9018 25.297C20.9018 25.125 20.8957 24.9543 20.8837 24.7862L28.4276 24.7862C29.2707 25.301 29.8404 26.2418 29.8404 27.3261L29.8404 27.3261Z" id="Shape" fill="#F7D448" fill-rule="evenodd" stroke="none" />
    </g>
    <path d="M78.0951 36C81.2932 36 83.8525 33.378 83.8525 30.1853C83.8525 28.5511 83.1848 27.072 82.1074 26.0138C82.6029 25.2515 82.8908 24.3393 82.8908 23.3619C82.8908 21.8971 82.246 20.5809 81.2222 19.6909C81.6718 18.9064 81.929 17.9955 81.929 17.0259C81.929 15.1571 80.9751 13.5073 79.5248 12.5547C79.5257 10.8085 78.9413 9.35283 78.1033 8.22298C77.4308 7.31598 76.6113 6.63704 75.8342 6.16008C74.6618 2.43953 70.5528 0 66.0733 0C61.5938 0 57.4849 2.43953 56.3123 6.16008C55.5352 6.63704 54.7158 7.31598 54.0433 8.22298C53.2053 9.35283 52.6208 10.8085 52.6218 12.5547C51.1715 13.5073 50.2175 15.1571 50.2175 17.0259C50.2175 17.9955 50.4747 18.9064 50.9244 19.6909C49.9007 20.5809 49.2558 21.8971 49.2558 23.3619C49.2558 24.3393 49.5437 25.2515 50.0391 26.0138C48.9617 27.072 48.294 28.5511 48.294 30.1853C48.294 33.378 50.8534 36 54.0514 36L78.0951 36L78.0951 36ZM78.0951 33.1409C79.6781 33.1409 80.9935 31.8351 80.9935 30.1853C80.9935 29.1011 80.4237 28.1602 79.5807 27.6454L72.0368 27.6454C72.0488 27.8135 72.0549 27.9842 72.0549 28.1563L72.0549 33.1409L78.0951 33.1409L78.0951 33.1409ZM66.0733 2.85916C63.2119 2.85916 60.9208 4.07762 59.737 5.68181L72.4095 5.68181C71.2257 4.07762 68.9346 2.85916 66.0733 2.85916L66.0733 2.85916ZM75.8067 9.92622C75.3568 9.31894 74.7853 8.85762 74.245 8.54095L57.9016 8.54095C57.3613 8.85762 56.7896 9.31894 56.3397 9.92622C55.9338 10.4735 55.6215 11.1447 55.5179 11.9592L76.6285 11.9592C76.525 11.1447 76.2126 10.4735 75.8067 9.92622L75.8067 9.92622ZM54.4084 14.8183C53.6233 15.2223 53.0766 16.055 53.0766 17.0259C53.0766 17.6527 53.304 18.2209 53.6781 18.6562L78.4684 18.6562C78.8424 18.2209 79.0698 17.6527 79.0698 17.0259C79.0698 16.055 78.5233 15.2223 77.738 14.8183L54.4084 14.8183L54.4084 14.8183ZM53.3453 21.5153C52.6323 21.8007 52.1149 22.5135 52.1149 23.3619C52.1149 23.9235 52.3419 24.4265 52.7049 24.7862L60.952 24.7862C61.9792 22.9383 63.8552 21.6378 66.0732 21.6378C68.2912 21.6378 70.1672 22.9383 71.1945 24.7862L79.4415 24.7862C79.8047 24.4265 80.0316 23.9235 80.0316 23.3619C80.0316 22.5135 79.5142 21.8007 78.8011 21.5153L53.3453 21.5153L53.3453 21.5153ZM51.1533 30.1853C51.1533 31.8351 52.4687 33.1409 54.0515 33.1409L60.0918 33.1409L60.0918 28.1563C60.0918 27.9842 60.0979 27.8135 60.1099 27.6454L52.5659 27.6454C51.7229 28.1602 51.1533 29.1011 51.1533 30.1853L51.1533 30.1853Z" id="Outline" fill="#292929" fill-rule="evenodd" stroke="none" />
    <g id="Text" transform="translate(0 0.8880005)">
      <path d="M192.636 5.856L192.636 14.256L203.916 14.256L203.916 19.584L192.636 19.584L192.636 28.464L205.356 28.464L205.356 33.936L185.916 33.936L185.916 0.384003L205.356 0.384003L205.356 5.856L192.636 5.856Z" id="E" fill="#292929" fill-rule="evenodd" stroke="none" />
      <path d="M170.604 28.608L181.644 28.608L181.644 33.936L163.884 33.936L163.884 0.432007L170.604 0.432007L170.604 28.608Z" id="L" fill="#292929" fill-rule="evenodd" stroke="none" />
      <path d="M113.484 10.512C112.716 9.104 111.66 8.032 110.316 7.296C108.972 6.56 107.404 6.192 105.612 6.192C103.628 6.192 101.868 6.64 100.332 7.536C98.7961 8.432 97.596 9.712 96.732 11.376C95.868 13.04 95.4361 14.96 95.4361 17.136C95.4361 19.376 95.8761 21.328 96.7561 22.992C97.636 24.656 98.86 25.936 100.428 26.832C101.996 27.728 103.82 28.176 105.9 28.176C108.46 28.176 110.556 27.496 112.188 26.136C113.82 24.776 114.892 22.88 115.404 20.448L103.884 20.448L103.884 15.312L122.028 15.312L122.028 21.168C121.58 23.504 120.62 25.664 119.148 27.648C117.676 29.632 115.78 31.224 113.46 32.424C111.14 33.624 108.54 34.224 105.66 34.224C102.428 34.224 99.508 33.496 96.9 32.04C94.292 30.584 92.244 28.56 90.7561 25.968C89.2681 23.376 88.524 20.432 88.524 17.136C88.524 13.84 89.2681 10.888 90.7561 8.28C92.244 5.672 94.292 3.64 96.9 2.184C99.508 0.728 102.412 0 105.612 0C109.388 0 112.668 0.92 115.452 2.76C118.236 4.6 120.156 7.184 121.212 10.512L113.484 10.512Z" id="G" fill="#292929" fill-rule="evenodd" stroke="none" />
      <path d="M150.348 10.512C149.58 9.104 148.524 8.032 147.18 7.296C145.836 6.56 144.268 6.192 142.476 6.192C140.492 6.192 138.732 6.64 137.196 7.536C135.66 8.432 134.46 9.712 133.596 11.376C132.732 13.04 132.3 14.96 132.3 17.136C132.3 19.376 132.74 21.328 133.62 22.992C134.5 24.656 135.724 25.936 137.292 26.832C138.86 27.728 140.684 28.176 142.764 28.176C145.324 28.176 147.42 27.496 149.052 26.136C150.684 24.776 151.756 22.88 152.268 20.448L140.748 20.448L140.748 15.312L158.892 15.312L158.892 21.168C158.444 23.504 157.484 25.664 156.012 27.648C154.54 29.632 152.644 31.224 150.324 32.424C148.004 33.624 145.404 34.224 142.524 34.224C139.292 34.224 136.372 33.496 133.764 32.04C131.156 30.584 129.108 28.56 127.62 25.968C126.132 23.376 125.388 20.432 125.388 17.136C125.388 13.84 126.132 10.888 127.62 8.28C129.108 5.672 131.156 3.64 133.764 2.184C136.372 0.728 139.276 0 142.476 0C146.252 0 149.532 0.92 152.316 2.76C155.1 4.6 157.02 7.184 158.076 10.512L150.348 10.512Z" id="G" fill="#292929" fill-rule="evenodd" stroke="none" />
      <path d="M47.04 0.432007L37.68 33.936L29.76 33.936L23.472 10.08L16.896 33.936L9.024 33.984L0 0.432007L7.2 0.432007L13.104 26.448L19.92 0.432007L27.408 0.432007L33.84 26.304L39.792 0.432007L47.04 0.432007Z" id="W" fill="#292929" fill-rule="evenodd" stroke="none" />
    </g>
  </g>
</svg>